<svg width="22" height="22" viewBox="0 0 22 22" fill="none" xmlns="http://www.w3.org/2000/svg">
<path fill-rule="evenodd" clip-rule="evenodd" d="M12 18V22H9.99998V18H12ZM16.6568 15.2426L19.4853 18.0711L18.0711 19.4853L15.2426 16.6568L16.6568 15.2426ZM5.34314 15.2426L6.75736 16.6568L3.92892 19.4853L2.5147 18.0711L5.34314 15.2426ZM11 5.53219C14.0198 5.53219 16.4678 7.98019 16.4678 11C16.4678 14.0198 14.0198 16.4678 11 16.4678C10.2816 16.4692 9.56995 16.3287 8.90595 16.0544C8.24194 15.7801 7.63863 15.3774 7.13062 14.8694C6.62261 14.3614 6.2199 13.7581 5.94559 13.0941C5.67129 12.4301 5.53078 11.7184 5.53214 11C5.53214 7.98019 7.98019 5.53219 11 5.53219ZM11 7.53216C9.08475 7.53216 7.53216 9.0848 7.53216 11.0038C7.53129 11.459 7.6203 11.9098 7.79407 12.3305C7.96784 12.7511 8.22296 13.1333 8.5448 13.4552C9.19481 14.1052 10.0769 14.4696 11 14.4678V7.53216ZM22 9.99998V12H18V9.99998H22ZM3.99998 9.99998V12H0V9.99998H3.99998ZM3.92892 2.5147L6.75736 5.34314L5.34314 6.75736L2.5147 3.92892L3.92892 2.5147ZM18.0711 2.5147L19.4853 3.92892L16.6568 6.75736L15.2426 5.34314L18.0711 2.5147ZM12 0V3.99998H9.99994V0H12Z" fill="white"/>
</svg>
