<svg width="20" height="20" viewBox="0 0 20 20" fill="none" xmlns="http://www.w3.org/2000/svg">
<g clip-path="url(#clip0_288_3933)">
<path fill-rule="evenodd" clip-rule="evenodd" d="M4.99992 1.45801C4.16284 1.45789 3.34727 1.72314 2.67041 2.21565C1.99355 2.70815 1.49025 3.40256 1.23283 4.19907C0.975411 4.99559 0.977129 5.85321 1.23774 6.64869C1.49834 7.44417 2.00443 8.13655 2.68325 8.62634C3.13909 8.99759 3.84992 9.47468 4.70409 9.99967C3.84992 10.5247 3.13909 11.0018 2.68325 11.373C2.00443 11.8628 1.49834 12.5552 1.23774 13.3507C0.977129 14.1461 0.975411 15.0038 1.23283 15.8003C1.49025 16.5968 1.99355 17.2912 2.67041 17.7837C3.34727 18.2762 4.16284 18.5415 4.99992 18.5413C5.8108 18.5416 6.6022 18.2928 7.26707 17.8286C7.93195 17.3644 8.43822 16.7072 8.71742 15.9459C8.87711 15.5093 8.95864 15.0479 8.95825 14.583C8.95879 14.0208 8.83931 13.465 8.60779 12.9526C8.37627 12.4403 8.03806 11.9833 7.61575 11.6122C8.05992 11.5763 9.82159 11.458 13.5416 11.458C13.7694 11.458 13.9901 11.4584 14.2037 11.4593C12.9685 10.999 11.7434 10.5123 10.5291 9.99967C13.9958 8.52884 17.5603 7.33301 18.7545 6.94301C19.0895 6.83342 19.2895 6.44551 19.0795 6.10884C18.6899 5.48384 17.7274 4.37467 15.8333 4.37467C15.1833 4.37467 14.3191 4.62134 13.4083 4.97301C12.4908 5.32717 11.5016 5.79842 10.5928 6.26759C9.84503 6.65504 9.10635 7.05987 8.37742 7.48176C8.74445 6.8817 8.94495 6.19468 8.95829 5.4914C8.97163 4.78813 8.79732 4.094 8.45331 3.48045C8.1093 2.86691 7.60801 2.35612 7.00103 2.00065C6.39406 1.64518 5.70332 1.45788 4.99992 1.45801ZM3.95825 5.41634C3.95825 5.14007 4.068 4.87512 4.26335 4.67977C4.4587 4.48442 4.72365 4.37467 4.99992 4.37467C5.27619 4.37467 5.54114 4.48442 5.73649 4.67977C5.93184 4.87512 6.04159 5.14007 6.04159 5.41634C6.04159 5.69261 5.93184 5.95756 5.73649 6.15291C5.54114 6.34826 5.27619 6.45801 4.99992 6.45801C4.72365 6.45801 4.4587 6.34826 4.26335 6.15291C4.068 5.95756 3.95825 5.69261 3.95825 5.41634ZM3.95825 14.583C3.95825 14.3067 4.068 14.0418 4.26335 13.8464C4.4587 13.6511 4.72365 13.5413 4.99992 13.5413C5.27619 13.5413 5.54114 13.6511 5.73649 13.8464C5.93184 14.0418 6.04159 14.3067 6.04159 14.583C6.04159 14.8593 5.93184 15.1242 5.73649 15.3196C5.54114 15.5149 5.27619 15.6247 4.99992 15.6247C4.72365 15.6247 4.4587 15.5149 4.26335 15.3196C4.068 15.1242 3.95825 14.8593 3.95825 14.583ZM12.9166 13.7497C12.9166 13.9707 12.8288 14.1827 12.6725 14.3389C12.5162 14.4952 12.3043 14.583 12.0833 14.583H11.2499C11.0289 14.583 10.8169 14.4952 10.6607 14.3389C10.5044 14.1827 10.4166 13.9707 10.4166 13.7497C10.4166 13.5287 10.5044 13.3167 10.6607 13.1604C10.8169 13.0041 11.0289 12.9163 11.2499 12.9163H12.0833C12.3043 12.9163 12.5162 13.0041 12.6725 13.1604C12.8288 13.3167 12.9166 13.5287 12.9166 13.7497ZM16.2499 13.7497C16.2499 13.9707 16.1621 14.1827 16.0058 14.3389C15.8496 14.4952 15.6376 14.583 15.4166 14.583H14.5833C14.3622 14.583 14.1503 14.4952 13.994 14.3389C13.8377 14.1827 13.7499 13.9707 13.7499 13.7497C13.7499 13.5287 13.8377 13.3167 13.994 13.1604C14.1503 13.0041 14.3622 12.9163 14.5833 12.9163H15.4166C15.6376 12.9163 15.8496 13.0041 16.0058 13.1604C16.1621 13.3167 16.2499 13.5287 16.2499 13.7497ZM18.7499 14.583C18.9709 14.583 19.1829 14.4952 19.3392 14.3389C19.4955 14.1827 19.5833 13.9707 19.5833 13.7497C19.5833 13.5287 19.4955 13.3167 19.3392 13.1604C19.1829 13.0041 18.9709 12.9163 18.7499 12.9163H17.9166C17.6956 12.9163 17.4836 13.0041 17.3273 13.1604C17.171 13.3167 17.0833 13.5287 17.0833 13.7497C17.0833 13.9707 17.171 14.1827 17.3273 14.3389C17.4836 14.4952 17.6956 14.583 17.9166 14.583H18.7499Z" fill="white"/>
</g>
<defs>
<clipPath id="clip0_288_3933">
<rect width="20" height="20" fill="white"/>
</clipPath>
</defs>
</svg>
