<svg width="23" height="21" viewBox="0 0 23 21" fill="none" xmlns="http://www.w3.org/2000/svg">
<path fill-rule="evenodd" clip-rule="evenodd" d="M4.75068 8.47539e-08C3.74619 -0.000144631 2.76751 0.318158 1.95527 0.909166C1.14304 1.50017 0.539079 2.33346 0.230177 3.28928C-0.0787252 4.2451 -0.0766636 5.27424 0.236066 6.22882C0.548795 7.18339 1.15609 8.01425 1.97068 8.602C2.51768 9.0475 3.37068 9.62 4.39568 10.25C3.37068 10.88 2.51768 11.4525 1.97068 11.898C1.15609 12.4857 0.548795 13.3166 0.236066 14.2712C-0.0766636 15.2258 -0.0787252 16.2549 0.230177 17.2107C0.539079 18.1665 1.14304 18.9998 1.95527 19.5908C2.76751 20.1818 3.74619 20.5001 4.75068 20.5C5.72374 20.5003 6.67342 20.2017 7.47127 19.6447C8.26912 19.0877 8.87665 18.2991 9.21169 17.3855C9.40332 16.8615 9.50115 16.3079 9.50068 15.75C9.50133 15.0754 9.35795 14.4083 9.08013 13.7935C8.80231 13.1788 8.39645 12.6304 7.88968 12.185C8.42268 12.142 10.5367 12 15.0007 12C15.274 12 15.5389 12.0005 15.7952 12.0015C14.313 11.4492 12.8429 10.8652 11.3857 10.25C15.5457 8.485 19.8232 7.05 21.2562 6.582C21.6582 6.4505 21.8982 5.985 21.6462 5.581C21.1787 4.831 20.0237 3.5 17.7507 3.5C16.9707 3.5 15.9337 3.796 14.8407 4.218C13.7397 4.643 12.5527 5.2085 11.4622 5.7715C10.5648 6.23643 9.6784 6.72223 8.80369 7.2285C9.24412 6.50843 9.48472 5.68401 9.50073 4.84007C9.51673 3.99614 9.30757 3.16319 8.89475 2.42694C8.48194 1.69068 7.88039 1.07774 7.15202 0.651172C6.42365 0.224609 5.59477 -0.000159345 4.75068 8.47539e-08ZM3.50068 4.75C3.50068 4.41848 3.63238 4.10054 3.8668 3.86612C4.10122 3.6317 4.41916 3.5 4.75068 3.5C5.0822 3.5 5.40015 3.6317 5.63457 3.86612C5.86899 4.10054 6.00068 4.41848 6.00068 4.75C6.00068 5.08152 5.86899 5.39946 5.63457 5.63388C5.40015 5.8683 5.0822 6 4.75068 6C4.41916 6 4.10122 5.8683 3.8668 5.63388C3.63238 5.39946 3.50068 5.08152 3.50068 4.75ZM3.50068 15.75C3.50068 15.4185 3.63238 15.1005 3.8668 14.8661C4.10122 14.6317 4.41916 14.5 4.75068 14.5C5.0822 14.5 5.40015 14.6317 5.63457 14.8661C5.86899 15.1005 6.00068 15.4185 6.00068 15.75C6.00068 16.0815 5.86899 16.3995 5.63457 16.6339C5.40015 16.8683 5.0822 17 4.75068 17C4.41916 17 4.10122 16.8683 3.8668 16.6339C3.63238 16.3995 3.50068 16.0815 3.50068 15.75ZM14.2507 14.75C14.2507 15.0152 14.1453 15.2696 13.9578 15.4571C13.7703 15.6446 13.5159 15.75 13.2507 15.75H12.2507C11.9855 15.75 11.7311 15.6446 11.5436 15.4571C11.356 15.2696 11.2507 15.0152 11.2507 14.75C11.2507 14.4848 11.356 14.2304 11.5436 14.0429C11.7311 13.8554 11.9855 13.75 12.2507 13.75H13.2507C13.5159 13.75 13.7703 13.8554 13.9578 14.0429C14.1453 14.2304 14.2507 14.4848 14.2507 14.75ZM18.2507 14.75C18.2507 15.0152 18.1453 15.2696 17.9578 15.4571C17.7703 15.6446 17.5159 15.75 17.2507 15.75H16.2507C15.9855 15.75 15.7311 15.6446 15.5436 15.4571C15.356 15.2696 15.2507 15.0152 15.2507 14.75C15.2507 14.4848 15.356 14.2304 15.5436 14.0429C15.7311 13.8554 15.9855 13.75 16.2507 13.75H17.2507C17.5159 13.75 17.7703 13.8554 17.9578 14.0429C18.1453 14.2304 18.2507 14.4848 18.2507 14.75ZM21.2507 15.75C21.5159 15.75 21.7703 15.6446 21.9578 15.4571C22.1453 15.2696 22.2507 15.0152 22.2507 14.75C22.2507 14.4848 22.1453 14.2304 21.9578 14.0429C21.7703 13.8554 21.5159 13.75 21.2507 13.75H20.2507C19.9855 13.75 19.7311 13.8554 19.5436 14.0429C19.356 14.2304 19.2507 14.4848 19.2507 14.75C19.2507 15.0152 19.356 15.2696 19.5436 15.4571C19.7311 15.6446 19.9855 15.75 20.2507 15.75H21.2507Z" fill="white"/>
</svg>
