<svg width="24" height="24" viewBox="0 0 24 24" fill="none" xmlns="http://www.w3.org/2000/svg">
<path d="M19.75 4C20.3467 4 20.919 4.23705 21.341 4.65901C21.7629 5.08097 22 5.65326 22 6.25V17.755C22 18.3517 21.7629 18.924 21.341 19.346C20.919 19.7679 20.3467 20.005 19.75 20.005H4.25C3.95453 20.005 3.66194 19.9468 3.38896 19.8337C3.11598 19.7207 2.86794 19.5549 2.65901 19.346C2.45008 19.1371 2.28434 18.889 2.17127 18.616C2.0582 18.3431 2 18.0505 2 17.755V6.25C2 5.65326 2.23705 5.08097 2.65901 4.65901C3.08097 4.23705 3.65326 4 4.25 4H19.75ZM19.75 5.5H4.25C4.05109 5.5 3.86032 5.57902 3.71967 5.71967C3.57902 5.86032 3.5 6.05109 3.5 6.25V17.755C3.5 18.169 3.836 18.505 4.25 18.505H19.75C19.9489 18.505 20.1397 18.426 20.2803 18.2853C20.421 18.1447 20.5 17.9539 20.5 17.755V6.25C20.5 6.05109 20.421 5.86032 20.2803 5.71967C20.1397 5.57902 19.9489 5.5 19.75 5.5ZM9.75 12.5C9.94891 12.5 10.1397 12.579 10.2803 12.7197C10.421 12.8603 10.5 13.0511 10.5 13.25V13.743L10.492 13.851C10.329 14.964 9.398 15.501 8 15.501C6.602 15.501 5.67 14.964 5.508 13.851L5.5 13.741V13.25C5.5 13.0511 5.57902 12.8603 5.71967 12.7197C5.86032 12.579 6.05109 12.5 6.25 12.5H9.75ZM13.252 12.996H17.75C17.94 12.9961 18.1229 13.0682 18.2618 13.198C18.4006 13.3277 18.4851 13.5053 18.498 13.6949C18.511 13.8845 18.4515 14.0719 18.3316 14.2193C18.2117 14.3667 18.0402 14.4631 17.852 14.489L17.75 14.496H13.252C13.062 14.4959 12.8791 14.4238 12.7402 14.294C12.6014 14.1643 12.5169 13.9867 12.504 13.7971C12.491 13.6075 12.5505 13.4201 12.6704 13.2727C12.7903 13.1253 12.9618 13.0289 13.15 13.003L13.252 12.996ZM8 8.502C8.39782 8.502 8.77936 8.66004 9.06066 8.94134C9.34196 9.22264 9.5 9.60418 9.5 10.002C9.5 10.3998 9.34196 10.7814 9.06066 11.0627C8.77936 11.344 8.39782 11.502 8 11.502C7.60218 11.502 7.22064 11.344 6.93934 11.0627C6.65804 10.7814 6.5 10.3998 6.5 10.002C6.5 9.60418 6.65804 9.22264 6.93934 8.94134C7.22064 8.66004 7.60218 8.502 8 8.502ZM13.252 9.5H17.75C17.94 9.50006 18.1229 9.57224 18.2618 9.70197C18.4006 9.8317 18.4851 10.0093 18.498 10.1989C18.511 10.3885 18.4515 10.5759 18.3316 10.7233C18.2117 10.8707 18.0402 10.9671 17.852 10.993L17.75 11H13.252C13.062 10.9999 12.8791 10.9278 12.7402 10.798C12.6014 10.6683 12.5169 10.4907 12.504 10.3011C12.491 10.1115 12.5505 9.92411 12.6704 9.7767C12.7903 9.62929 12.9618 9.5329 13.15 9.507L13.252 9.5Z" fill="white"/>
</svg>
