<svg width="24" height="24" viewBox="0 0 24 24" fill="none" xmlns="http://www.w3.org/2000/svg">
<path d="M4.8002 4.7998C4.16368 4.7998 3.55323 5.05266 3.10314 5.50275C2.65305 5.95284 2.4002 6.56328 2.4002 7.1998V11.1082C3.1044 10.5267 3.92163 10.0976 4.8002 9.8482V4.7998ZM19.2002 19.1998H12.4802C12.941 18.2998 13.2002 17.2798 13.2002 16.1998C13.2002 15.1198 12.941 14.0998 12.4802 13.1998H16.2002C16.6776 13.1998 17.1354 13.0102 17.473 12.6726C17.8106 12.335 18.0002 11.8772 18.0002 11.3998V10.1998C18.0002 9.72241 17.8106 9.26458 17.473 8.92701C17.1354 8.58945 16.6776 8.3998 16.2002 8.3998H11.4002C10.9228 8.3998 10.465 8.58945 10.1274 8.92701C9.78984 9.26458 9.60019 9.72241 9.60019 10.1998V10.3198C8.48978 9.75326 7.24162 9.51279 6.0002 9.6262V4.7998H19.2002C19.8367 4.7998 20.4472 5.05266 20.8972 5.50275C21.3473 5.95284 21.6002 6.56328 21.6002 7.1998V16.7998C21.6002 17.4363 21.3473 18.0468 20.8972 18.4969C20.4472 18.9469 19.8367 19.1998 19.2002 19.1998ZM16.2002 11.9998H11.6918C11.4237 11.6748 11.1252 11.3763 10.8002 11.1082V10.1998C10.8002 10.0407 10.8634 9.88806 10.9759 9.77554C11.0885 9.66302 11.2411 9.5998 11.4002 9.5998H16.2002C16.3593 9.5998 16.5119 9.66302 16.6245 9.77554C16.737 9.88806 16.8002 10.0407 16.8002 10.1998V11.3998C16.8002 11.5589 16.737 11.7115 16.6245 11.8241C16.5119 11.9366 16.3593 11.9998 16.2002 11.9998ZM12.0002 16.1998C12.0002 17.632 11.4313 19.0055 10.4186 20.0182C9.40587 21.0309 8.03236 21.5998 6.60019 21.5998C5.16803 21.5998 3.79451 21.0309 2.78182 20.0182C1.76912 19.0055 1.2002 17.632 1.2002 16.1998C1.2002 14.7676 1.76912 13.3941 2.78182 12.3814C3.79451 11.3687 5.16803 10.7998 6.60019 10.7998C8.03236 10.7998 9.40587 11.3687 10.4186 12.3814C11.4313 13.3941 12.0002 14.7676 12.0002 16.1998ZM7.20019 13.7998C7.20019 13.6407 7.13698 13.4881 7.02446 13.3755C6.91194 13.263 6.75933 13.1998 6.60019 13.1998C6.44107 13.1998 6.28845 13.263 6.17593 13.3755C6.06341 13.4881 6.0002 13.6407 6.0002 13.7998V15.5998H4.2002C4.04107 15.5998 3.88845 15.663 3.77593 15.7755C3.66341 15.8881 3.6002 16.0407 3.6002 16.1998C3.6002 16.3589 3.66341 16.5115 3.77593 16.6241C3.88845 16.7366 4.04107 16.7998 4.2002 16.7998H6.0002V18.5998C6.0002 18.7589 6.06341 18.9115 6.17593 19.0241C6.28845 19.1366 6.44107 19.1998 6.60019 19.1998C6.75933 19.1998 6.91194 19.1366 7.02446 19.0241C7.13698 18.9115 7.20019 18.7589 7.20019 18.5998V16.7998H9.0002C9.15932 16.7998 9.31194 16.7366 9.42446 16.6241C9.53698 16.5115 9.60019 16.3589 9.60019 16.1998C9.60019 16.0407 9.53698 15.8881 9.42446 15.7755C9.31194 15.663 9.15932 15.5998 9.0002 15.5998H7.20019V13.7998Z" fill="#0077FF"/>
</svg>
