<svg width="44" height="44" viewBox="0 0 44 44" fill="none" xmlns="http://www.w3.org/2000/svg">
<rect x="0.5" y="0.5" width="43" height="43" rx="21.5" stroke="#5C3D8C"/>
<path d="M26 24C27.3261 24 28.5979 24.5268 29.5355 25.4645C30.4732 26.4021 31 27.6739 31 29V30C31 30.5304 30.7893 31.0391 30.4142 31.4142C30.0391 31.7893 29.5304 32 29 32H15C14.4696 32 13.9609 31.7893 13.5858 31.4142C13.2107 31.0391 13 30.5304 13 30V29C13 27.6739 13.5268 26.4021 14.4645 25.4645C15.4021 24.5268 16.6739 24 18 24H26ZM31.414 19.081C31.5935 18.8997 31.8356 18.794 32.0905 18.7853C32.3455 18.7767 32.5942 18.8658 32.7856 19.0345C32.977 19.2031 33.0967 19.4386 33.1202 19.6926C33.1437 19.9467 33.0692 20.2001 32.912 20.401L32.828 20.496L30 23.324C29.8278 23.4962 29.5987 23.5996 29.3557 23.6149C29.1127 23.6302 28.8724 23.5563 28.68 23.407L28.586 23.324L27.172 21.91C26.9907 21.7305 26.885 21.4884 26.8763 21.2335C26.8677 20.9785 26.9568 20.7298 27.1255 20.5384C27.2941 20.347 27.5296 20.2273 27.7836 20.2038C28.0377 20.1803 28.2911 20.2548 28.492 20.412L28.586 20.496L29.293 21.203L31.414 19.081ZM22 12C23.3261 12 24.5979 12.5268 25.5355 13.4645C26.4732 14.4021 27 15.6739 27 17C27 18.3261 26.4732 19.5979 25.5355 20.5355C24.5979 21.4732 23.3261 22 22 22C20.6739 22 19.4021 21.4732 18.4645 20.5355C17.5268 19.5979 17 18.3261 17 17C17 15.6739 17.5268 14.4021 18.4645 13.4645C19.4021 12.5268 20.6739 12 22 12Z" fill="#5C3D8C"/>
</svg>
