<svg width="40" height="40" viewBox="0 0 40 40" fill="none" xmlns="http://www.w3.org/2000/svg">
<rect width="40" height="40" rx="8" fill="#5C3D8C"/>
<path d="M17.1071 13.448C17.7051 11.698 20.1231 11.645 20.8321 13.289L20.8921 13.449L21.6991 15.809C21.884 16.3502 22.1829 16.8455 22.5755 17.2614C22.9682 17.6773 23.4454 18.0042 23.9751 18.22L24.1921 18.301L26.5521 19.107C28.3021 19.705 28.3551 22.123 26.7121 22.832L26.5521 22.892L24.1921 23.699C23.6507 23.8838 23.1552 24.1826 22.7391 24.5753C22.323 24.9679 21.996 25.4452 21.7801 25.975L21.6991 26.191L20.8931 28.552C20.2951 30.302 17.8771 30.355 17.1691 28.712L17.1071 28.552L16.3011 26.192C16.1163 25.6506 15.8175 25.1551 15.4248 24.739C15.0322 24.3229 14.5549 23.9959 14.0251 23.78L13.8091 23.699L11.4491 22.893C9.6981 22.295 9.6451 19.877 11.2891 19.169L11.4491 19.107L13.8091 18.301C14.3503 18.1161 14.8456 17.8172 15.2615 17.4246C15.6774 17.0319 16.0043 16.5547 16.2201 16.025L16.3011 15.809L17.1071 13.448ZM27.0001 10C27.1872 10 27.3705 10.0525 27.5293 10.1515C27.688 10.2505 27.8158 10.392 27.8981 10.56L27.9461 10.677L28.2961 11.703L29.3231 12.053C29.5106 12.1167 29.6749 12.2346 29.7953 12.3918C29.9157 12.549 29.9867 12.7384 29.9994 12.936C30.012 13.1336 29.9657 13.3305 29.8663 13.5018C29.7669 13.673 29.6189 13.8109 29.4411 13.898L29.3231 13.946L28.2971 14.296L27.9471 15.323C27.8833 15.5104 27.7653 15.6747 27.608 15.795C27.4508 15.9153 27.2613 15.9862 27.0637 15.9987C26.8661 16.0113 26.6693 15.9648 26.4981 15.8654C26.3269 15.7659 26.1891 15.6179 26.1021 15.44L26.0541 15.323L25.7041 14.297L24.6771 13.947C24.4896 13.8833 24.3253 13.7654 24.2049 13.6082C24.0845 13.451 24.0135 13.2616 24.0008 13.064C23.9882 12.8664 24.0345 12.6695 24.1339 12.4982C24.2333 12.327 24.3813 12.1891 24.5591 12.102L24.6771 12.054L25.7031 11.704L26.0531 10.677C26.1205 10.4794 26.2481 10.3079 26.4179 10.1865C26.5878 10.0651 26.7913 9.99987 27.0001 10Z" fill="white"/>
</svg>
