<svg width="50" height="50" viewBox="0 0 50 50" fill="none" xmlns="http://www.w3.org/2000/svg">
<circle cx="25" cy="25" r="25" fill="#5C3D8C" fill-opacity="0.2"/>
<circle cx="25" cy="25" r="20" fill="#5C3D8C"/>
<path d="M17 32L16.07 31.63C16.0035 31.7972 15.9834 31.9792 16.0118 32.1569C16.0401 32.3346 16.1159 32.5013 16.231 32.6395C16.3462 32.7777 16.4966 32.8823 16.6662 32.9422C16.8359 33.0022 17.0185 33.0152 17.195 32.98L17 32ZM21.706 31.064L22.18 30.183L21.863 30.013L21.511 30.083L21.706 31.064ZM18.624 27.917L19.554 28.287L19.717 27.873L19.521 27.474L18.624 27.917ZM32 25C32 28.246 29.147 31 25.47 31V33C30.111 33 34 29.486 34 25H32ZM18.941 25C18.941 21.754 21.795 19 25.471 19V17C20.83 17 16.94 20.514 16.94 25H18.941ZM25.471 19C29.147 19 32 21.754 32 25H34C34 20.514 30.112 17 25.471 17V19ZM25.47 31C24.265 31 23.143 30.7 22.18 30.183L21.232 31.944C22.5353 32.6427 23.9912 33.0056 25.47 33V31ZM17.195 32.98L21.901 32.044L21.511 30.083L16.805 31.019L17.195 32.981V32.98ZM19.521 27.474C19.1403 26.7048 18.9425 25.8583 18.941 25H16.94C16.94 26.2 17.222 27.338 17.726 28.36L19.521 27.474ZM17.695 27.547L16.07 31.631L17.928 32.369L19.552 28.286L17.694 27.547H17.695Z" fill="white"/>
<path d="M22 26C22.5523 26 23 25.5523 23 25C23 24.4477 22.5523 24 22 24C21.4477 24 21 24.4477 21 25C21 25.5523 21.4477 26 22 26Z" fill="white"/>
<path d="M25.5 26C26.0523 26 26.5 25.5523 26.5 25C26.5 24.4477 26.0523 24 25.5 24C24.9477 24 24.5 24.4477 24.5 25C24.5 25.5523 24.9477 26 25.5 26Z" fill="white"/>
<path d="M29 26C29.5523 26 30 25.5523 30 25C30 24.4477 29.5523 24 29 24C28.4477 24 28 24.4477 28 25C28 25.5523 28.4477 26 29 26Z" fill="white"/>
</svg>
