<svg width="13" height="14" viewBox="0 0 13 14" fill="none" xmlns="http://www.w3.org/2000/svg">
<path d="M6.25 0C9.70187 0 12.5 2.79813 12.5 6.25C12.5 9.70187 9.70187 12.5 6.25 12.5C2.79813 12.5 0 9.70187 0 6.25C0 2.79813 2.79813 0 6.25 0ZM6.25 2.5C6.08424 2.5 5.92527 2.56585 5.80806 2.68306C5.69085 2.80027 5.625 2.95924 5.625 3.125V6.25C5.62504 6.41575 5.69091 6.57469 5.80813 6.69187L7.68313 8.56687C7.801 8.68072 7.95888 8.74372 8.12275 8.7423C8.28662 8.74087 8.44338 8.67514 8.55926 8.55926C8.67514 8.44338 8.74087 8.28662 8.7423 8.12275C8.74372 7.95888 8.68072 7.801 8.56687 7.68313L6.875 5.99125V3.125C6.875 2.95924 6.80915 2.80027 6.69194 2.68306C6.57473 2.56585 6.41576 2.5 6.25 2.5Z" fill="#5C3D8C"/>
</svg>
