<svg width="50" height="50" viewBox="0 0 50 50" fill="none" xmlns="http://www.w3.org/2000/svg">
<circle cx="25" cy="25" r="25" fill="#5C3D8C" fill-opacity="0.2"/>
<circle cx="25" cy="25" r="20" fill="#5C3D8C"/>
<path d="M32.23 28.2598L29.69 27.9698C29.3914 27.9347 29.0886 27.9678 28.8046 28.0665C28.5206 28.1652 28.2626 28.327 28.05 28.5398L26.21 30.3798C23.3714 28.9357 21.0641 26.6284 19.62 23.7898L21.47 21.9398C21.9 21.5098 22.11 20.9098 22.04 20.2998L21.75 17.7798C21.6936 17.2919 21.4595 16.8418 21.0925 16.5154C20.7255 16.1889 20.2512 16.009 19.76 16.0098H18.03C16.9 16.0098 15.96 16.9498 16.03 18.0798C16.56 26.6198 23.39 33.4398 31.92 33.9698C33.05 34.0398 33.99 33.0998 33.99 31.9698V30.2398C34 29.2298 33.24 28.3798 32.23 28.2598Z" fill="white"/>
</svg>
