<svg width="24" height="24" viewBox="0 0 24 24" fill="none" xmlns="http://www.w3.org/2000/svg">
<path d="M18.4001 3.2H15.2001C14.4001 3.2 14.4001 4.8 15.2001 4.8H18.4001C19.2001 4.8 19.2001 6.4 18.4001 6.4H15.2001C14.4001 6.4 14.4001 8 15.2001 8H18.4001C19.2001 8 19.2001 9.6 18.4001 9.6H15.2001C14.4001 9.6 14.4001 11.2 15.2001 11.2H18.4001C19.2001 11.2 19.2001 12.8 18.4001 12.8H15.2001C14.4001 12.8 14.4001 14.4 15.2001 14.4H18.4001C19.2001 14.4 19.2001 16 18.4001 16H15.2001C14.4001 16 14.4001 17.6 15.2001 17.6H18.4001C19.2001 17.6 19.2001 19.2 18.4001 19.2H15.2001C14.4001 19.2 14.4001 20.8 15.2001 20.8H18.4001C19.2001 20.8 19.2001 22.4 18.4001 22.4H15.2001C14.4001 22.4 14.4001 24 15.2001 24H21.6001C22.4001 24 22.4001 22.4 22.4001 22.4V1.6C22.4001 1.6 22.4001 0 21.6001 0H15.2001C14.4001 0 14.4001 1.6 15.2001 1.6H18.4001C19.2001 1.6 19.2001 3.2 18.4001 3.2ZM9.4401 16.272C11.2001 15.2 12.8001 16.848 12.8001 18.4C12.8001 19.376 12.4001 20.224 11.5521 20.608C11.3441 21.664 11.6001 21.952 11.8561 22.448C12.1121 22.96 11.4721 23.6 10.9281 23.104C10.4641 22.672 10.2241 21.6 10.2401 20.848C9.0561 20.784 8.0001 19.776 8.0001 18.4L7.6001 12H6.8001L6.4001 18.4C6.4001 19.632 5.4241 20.8 4.0001 20.8C2.5921 20.8 1.6001 19.76 1.6001 18.4C1.6001 16.88 3.2001 15.2 5.0721 16.272C5.2001 16.4 6.4001 0 7.2001 0C8.0001 0 9.4401 16.272 9.4401 16.272ZM4.0001 17.2C3.2001 17.2 2.8001 17.6 2.8001 18.4C2.8001 19.2 3.2001 19.6 4.0001 19.6C4.8001 19.6 5.2001 18.8 5.2001 18.4C5.2001 17.6 4.8001 17.2 4.0001 17.2ZM10.4001 17.2C9.6001 17.2 9.2001 17.6 9.2001 18.4C9.2001 18.8 9.6001 19.6 10.4001 19.6C11.2001 19.6 11.6001 19.2 11.6001 18.4C11.6001 17.6 11.2001 17.2 10.4001 17.2Z" fill="#5C3D8C"/>
</svg>
