<svg width="24" height="24" viewBox="0 0 24 24" fill="none" xmlns="http://www.w3.org/2000/svg">
<path d="M11.9999 22C10.4332 21.8 9.03324 21.4 7.7999 20.8C6.56657 20.2 5.5209 19.4167 4.6629 18.45C3.8049 17.4833 3.15057 16.3627 2.6999 15.088C2.24924 13.8133 2.02424 12.4007 2.0249 10.85C3.85824 11.0333 5.40824 11.3667 6.6749 11.85C7.94157 12.3333 8.9709 13.0167 9.7629 13.9C10.5549 14.7833 11.1256 15.8877 11.4749 17.213C11.8242 18.5383 11.9992 20.134 11.9999 22ZM11.9999 13.575C11.6166 12.9917 11.0959 12.4167 10.4379 11.85C9.7799 11.2833 9.01724 10.7667 8.1499 10.3C8.2499 9.6 8.41657 8.875 8.6499 8.125C8.88324 7.375 9.16657 6.63767 9.4999 5.913C9.83324 5.18833 10.2126 4.49233 10.6379 3.825C11.0632 3.15767 11.5172 2.54933 11.9999 2C12.4832 2.55 12.9376 3.15833 13.3629 3.825C13.7882 4.49167 14.1672 5.18767 14.4999 5.913C14.8326 6.63833 15.1159 7.37567 15.3499 8.125C15.5839 8.87433 15.7506 9.59933 15.8499 10.3C14.9832 10.75 14.2209 11.2583 13.5629 11.825C12.9049 12.3917 12.3839 12.975 11.9999 13.575ZM13.9999 21.6C13.9666 20.4333 13.8792 19.354 13.7379 18.362C13.5966 17.37 13.3756 16.4327 13.0749 15.55C13.8582 14.2 14.9376 13.1 16.3129 12.25C17.6882 11.4 19.5756 10.9333 21.9749 10.85C21.9916 13.4833 21.2872 15.7543 19.8619 17.663C18.4366 19.5717 16.4826 20.884 13.9999 21.6Z" fill="#5C3D8C"/>
</svg>
