<svg width="20" height="20" viewBox="0 0 20 20" fill="none" xmlns="http://www.w3.org/2000/svg">
    <path
        d="M1.6665 18.3337V3.33366C1.6665 2.87533 1.82984 2.4831 2.1565 2.15699C2.48317 1.83088 2.87539 1.66755 3.33317 1.66699H16.6665C17.1248 1.66699 17.5173 1.83033 17.844 2.15699C18.1707 2.48366 18.3337 2.87588 18.3332 3.33366V13.3337C18.3332 13.792 18.1701 14.1845 17.844 14.5112C17.5179 14.8378 17.1254 15.0009 16.6665 15.0003H4.99984L1.6665 18.3337ZM4.99984 11.667H11.6665V10.0003H4.99984V11.667ZM4.99984 9.16699H14.9998V7.50033H4.99984V9.16699ZM4.99984 6.66699H14.9998V5.00033H4.99984V6.66699Z"
        fill="#131313" fill-opacity="1" />
</svg>
