<svg width="24" height="24" viewBox="0 0 24 24" fill="none" xmlns="http://www.w3.org/2000/svg">
<path d="M12 19.6544L11.242 18.9694C9.61 17.4787 8.26 16.2027 7.192 15.1414C6.12467 14.0794 5.282 13.1427 4.664 12.3314C4.046 11.5201 3.614 10.7867 3.368 10.1314C3.122 9.47606 2.99934 8.81572 3 8.15039C3 6.87839 3.432 5.81039 4.296 4.94639C5.16 4.08239 6.228 3.65039 7.5 3.65039C8.38 3.65039 9.205 3.87539 9.975 4.32539C10.745 4.77539 11.42 5.43006 12 6.28939C12.58 5.43006 13.255 4.77539 14.025 4.32539C14.795 3.87539 15.62 3.65039 16.5 3.65039C17.772 3.65039 18.84 4.08239 19.704 4.94639C20.568 5.81039 21 6.87839 21 8.15039C21 8.81439 20.8773 9.47439 20.632 10.1304C20.386 10.7877 19.954 11.5217 19.336 12.3324C18.718 13.1431 17.8783 14.0794 16.817 15.1414C15.7557 16.2027 14.4023 17.4787 12.757 18.9694L12 19.6544Z" fill="#5C3D8C"/>
</svg>
