<svg width="24" height="24" viewBox="0 0 24 24" fill="none" xmlns="http://www.w3.org/2000/svg">
<path d="M23.383 5.07612C23.5657 5.15186 23.7218 5.28007 23.8316 5.44454C23.9415 5.60901 24 5.80235 24 6.00012V18.0001C24 18.1979 23.9413 18.3912 23.8314 18.5556C23.7215 18.72 23.5654 18.8481 23.3827 18.9238C23.2 18.9995 22.9989 19.0193 22.805 18.9807C22.611 18.9421 22.4329 18.8469 22.293 18.7071L16.293 12.7071C16.1055 12.5196 16.0002 12.2653 16.0002 12.0001C16.0002 11.735 16.1055 11.4806 16.293 11.2931L22.293 5.29312C22.4328 5.15318 22.6111 5.05787 22.8051 5.01925C22.9991 4.98062 23.2002 5.00041 23.383 5.07612ZM3.4 6.00012H11.6C11.9152 6.00012 12.2273 6.06219 12.5184 6.18281C12.8096 6.30342 13.0742 6.4802 13.2971 6.70306C13.5199 6.92592 13.6967 7.19049 13.8173 7.48168C13.9379 7.77286 14 8.08494 14 8.40012V15.6001C14 15.9153 13.9379 16.2274 13.8173 16.5186C13.6967 16.8097 13.5199 17.0743 13.2971 17.2972C13.0742 17.52 12.8096 17.6968 12.5184 17.8174C12.2273 17.938 11.9152 18.0001 11.6 18.0001H3.4C2.76348 18.0001 2.15303 17.7473 1.70294 17.2972C1.25286 16.8471 1 16.2366 1 15.6001V8.40012C1 8.08494 1.06208 7.77286 1.18269 7.48168C1.3033 7.19049 1.48008 6.92592 1.70294 6.70306C2.15303 6.25297 2.76348 6.00012 3.4 6.00012Z" fill="#F11BB4"/>
</svg>
