<svg width="30" height="30" viewBox="0 0 30 30" fill="none" xmlns="http://www.w3.org/2000/svg">
<path fill-rule="evenodd" clip-rule="evenodd" d="M12.2225 26.2501H17.7775C21.6788 26.2501 23.63 26.2501 25.0312 25.3313C25.636 24.9352 26.1568 24.4238 26.5637 23.8263C27.5 22.4513 27.5 20.5351 27.5 16.7051C27.5 12.8751 27.5 10.9588 26.5637 9.58381C26.1568 8.9863 25.636 8.47488 25.0312 8.07881C24.1313 7.48756 23.0037 7.27631 21.2775 7.20131C20.4537 7.20131 19.745 6.58881 19.5837 5.79506C19.4605 5.21364 19.1403 4.6926 18.6773 4.32C18.2143 3.94739 17.6368 3.74607 17.0425 3.75006H12.9575C11.7225 3.75006 10.6588 4.60631 10.4163 5.79506C10.255 6.58881 9.54625 7.20131 8.7225 7.20131C6.9975 7.27631 5.87 7.48881 4.96875 8.07881C4.36442 8.47501 3.84409 8.98642 3.4375 9.58381C2.5 10.9588 2.5 12.8738 2.5 16.7051C2.5 20.5363 2.5 22.4501 3.43625 23.8263C3.84125 24.4213 4.36125 24.9326 4.96875 25.3313C6.37 26.2501 8.32125 26.2501 12.2225 26.2501ZM15 11.5913C12.1237 11.5913 9.79125 13.8801 9.79125 16.7038C9.79125 19.5276 12.125 21.8201 15 21.8201C17.875 21.8201 20.2087 19.5301 20.2087 16.7063C20.2087 13.8826 17.875 11.5913 15 11.5913ZM15 13.6363C13.275 13.6363 11.875 15.0101 11.875 16.7051C11.875 18.3988 13.275 19.7726 15 19.7726C16.725 19.7726 18.125 18.3988 18.125 16.7051C18.125 15.0113 16.725 13.6363 15 13.6363ZM20.9025 12.6138C20.9025 12.0488 21.3687 11.5913 21.945 11.5913H23.3325C23.9075 11.5913 24.375 12.0488 24.375 12.6138C24.3724 12.8874 24.2612 13.1488 24.066 13.3405C23.8707 13.5323 23.6074 13.6386 23.3337 13.6363H21.945C21.8094 13.6376 21.6749 13.6122 21.5491 13.5616C21.4233 13.5109 21.3088 13.4359 21.212 13.341C21.1152 13.246 21.038 13.1329 20.9849 13.0082C20.9318 12.8834 20.9038 12.7494 20.9025 12.6138Z" fill="#5C3D8C"/>
</svg>
