<svg width="21" height="21" viewBox="0 0 21 21" fill="none" xmlns="http://www.w3.org/2000/svg">
<path d="M17.4125 11.0777C17.2723 10.918 17.1949 10.7128 17.1949 10.5002C17.1949 10.2877 17.2723 10.0824 17.4125 9.92271L18.5325 8.66271C18.6559 8.52505 18.7326 8.35183 18.7514 8.16791C18.7703 7.98398 18.7304 7.79881 18.6375 7.63896L16.8875 4.61146C16.7956 4.45179 16.6556 4.32523 16.4874 4.24981C16.3193 4.1744 16.1317 4.15398 15.9513 4.19146L14.3063 4.52396C14.097 4.56721 13.8791 4.53235 13.6937 4.42596C13.5083 4.31957 13.3683 4.14901 13.3 3.94646L12.7663 2.34521C12.7076 2.17142 12.5957 2.02047 12.4466 1.9137C12.2974 1.80693 12.1185 1.74974 11.935 1.75021H8.43503C8.24422 1.74025 8.0554 1.79302 7.8974 1.90046C7.7394 2.0079 7.62091 2.16411 7.56003 2.34521L7.07003 3.94646C7.00178 4.14901 6.86176 4.31957 6.67638 4.42596C6.491 4.53235 6.2731 4.56721 6.06378 4.52396L4.37503 4.19146C4.20401 4.1673 4.02967 4.19428 3.87396 4.26902C3.71825 4.34376 3.58815 4.46291 3.50003 4.61146L1.75003 7.63896C1.6548 7.79703 1.61198 7.98116 1.62769 8.16503C1.64341 8.3489 1.71685 8.5231 1.83753 8.66271L2.94878 9.92271C3.08906 10.0824 3.16642 10.2877 3.16642 10.5002C3.16642 10.7128 3.08906 10.918 2.94878 11.0777L1.83753 12.3377C1.71685 12.4773 1.64341 12.6515 1.62769 12.8354C1.61198 13.0193 1.6548 13.2034 1.75003 13.3615L3.50003 16.389C3.59199 16.5486 3.73201 16.6752 3.90013 16.7506C4.06824 16.826 4.25588 16.8464 4.43628 16.809L6.08128 16.4765C6.2906 16.4332 6.5085 16.4681 6.69388 16.5745C6.87926 16.6809 7.01928 16.8514 7.08753 17.054L7.62128 18.6552C7.68216 18.8363 7.80065 18.9925 7.95865 19.1C8.11665 19.2074 8.30547 19.2602 8.49628 19.2502H11.9963C12.1797 19.2507 12.3587 19.1935 12.5078 19.0867C12.657 18.98 12.7688 18.829 12.8275 18.6552L13.3613 17.054C13.4295 16.8514 13.5696 16.6809 13.7549 16.5745C13.9403 16.4681 14.1582 16.4332 14.3675 16.4765L16.0125 16.809C16.1929 16.8464 16.3806 16.826 16.5487 16.7506C16.7168 16.6752 16.8568 16.5486 16.9488 16.389L18.6988 13.3615C18.7917 13.2016 18.8316 13.0164 18.8127 12.8325C18.7938 12.6486 18.7172 12.4754 18.5938 12.3377L17.4125 11.0777ZM16.1088 12.2502L16.8088 13.0377L15.6888 14.9802L14.6563 14.7702C14.0261 14.6414 13.3705 14.7484 12.8141 15.071C12.2576 15.3936 11.8389 15.9093 11.6375 16.5202L11.305 17.5002H9.06503L8.75003 16.5027C8.54865 15.8918 8.12999 15.3761 7.57351 15.0535C7.01703 14.7309 6.36147 14.6239 5.73128 14.7527L4.69878 14.9627L3.56128 13.029L4.26128 12.2415C4.69174 11.7602 4.92972 11.1372 4.92972 10.4915C4.92972 9.84577 4.69174 9.22273 4.26128 8.74146L3.56128 7.95396L4.68128 6.02896L5.71378 6.23896C6.34397 6.36778 6.99953 6.26073 7.55601 5.93814C8.11249 5.61554 8.53115 5.09985 8.73253 4.48896L9.06503 3.50021H11.305L11.6375 4.49771C11.8389 5.1086 12.2576 5.62429 12.8141 5.94689C13.3705 6.26948 14.0261 6.37653 14.6563 6.24771L15.6888 6.03771L16.8088 7.98021L16.1088 8.76771C15.6832 9.24788 15.4481 9.86731 15.4481 10.509C15.4481 11.1506 15.6832 11.77 16.1088 12.2502ZM10.185 7.00021C9.4928 7.00021 8.81611 7.20548 8.24054 7.59007C7.66496 7.97466 7.21636 8.52128 6.95145 9.16082C6.68655 9.80036 6.61723 10.5041 6.75228 11.183C6.88733 11.862 7.22067 12.4856 7.71016 12.9751C8.19964 13.4646 8.82328 13.7979 9.50222 13.933C10.1811 14.068 10.8849 13.9987 11.5244 13.7338C12.164 13.4689 12.7106 13.0203 13.0952 12.4447C13.4798 11.8691 13.685 11.1924 13.685 10.5002C13.685 9.57196 13.3163 8.68172 12.6599 8.02534C12.0035 7.36896 11.1133 7.00021 10.185 7.00021ZM10.185 12.2502C9.83891 12.2502 9.50057 12.1476 9.21278 11.9553C8.925 11.763 8.7007 11.4897 8.56824 11.1699C8.43579 10.8501 8.40113 10.4983 8.46866 10.1588C8.53618 9.81934 8.70285 9.50752 8.94759 9.26278C9.19234 9.01803 9.50416 8.85136 9.84362 8.78384C10.1831 8.71631 10.535 8.75097 10.8547 8.88342C11.1745 9.01588 11.4478 9.24018 11.6401 9.52797C11.8324 9.81575 11.935 10.1541 11.935 10.5002C11.935 10.9643 11.7507 11.4095 11.4225 11.7376C11.0943 12.0658 10.6492 12.2502 10.185 12.2502Z" fill="white"/>
</svg>
