<svg width="12" height="15" viewBox="0 0 12 15" fill="none" xmlns="http://www.w3.org/2000/svg">
<path d="M10.2426 1.81956C7.89945 -0.606521 4.10055 -0.606521 1.75745 1.81956C1.20114 2.39165 0.759086 3.07503 0.457279 3.82952C0.155473 4.58401 0 5.3944 0 6.21304C0 7.03169 0.155473 7.84207 0.457279 8.59657C0.759086 9.35106 1.20114 10.0344 1.75745 10.6065L5.99963 15L10.2426 10.6065C10.7989 10.0344 11.2409 9.35106 11.5427 8.59657C11.8445 7.84207 12 7.03169 12 6.21304C12 5.3944 11.8445 4.58401 11.5427 3.82952C11.2409 3.07503 10.7989 2.39165 10.2426 1.81956ZM5.99963 8.28939C5.4986 8.28939 5.02834 8.08412 4.67357 7.71148C4.32237 7.34102 4.12513 6.83903 4.12513 6.31568C4.12513 5.79232 4.32237 5.29033 4.67357 4.91987C5.02759 4.54723 5.4986 4.34196 5.99963 4.34196C6.50065 4.34196 6.97167 4.54723 7.32568 4.91987C7.67688 5.29033 7.87412 5.79232 7.87412 6.31568C7.87412 6.83903 7.67688 7.34102 7.32568 7.71148C6.97167 8.08412 6.50065 8.28939 5.99963 8.28939Z" fill="#131313" fill-opacity="0.6"/>
</svg>
