<svg width="17" height="17" viewBox="0 0 17 17" fill="none" xmlns="http://www.w3.org/2000/svg">
    <path
        d="M0 16.6667V1.66667C0 1.20833 0.163333 0.816111 0.49 0.49C0.816667 0.163889 1.20889 0.000555556 1.66667 0H15C15.4583 0 15.8508 0.163333 16.1775 0.49C16.5042 0.816667 16.6672 1.20889 16.6667 1.66667V11.6667C16.6667 12.125 16.5036 12.5175 16.1775 12.8442C15.8514 13.1708 15.4589 13.3339 15 13.3333H3.33333L0 16.6667ZM3.33333 10H10V8.33333H3.33333V10ZM3.33333 7.5H13.3333V5.83333H3.33333V7.5ZM3.33333 5H13.3333V3.33333H3.33333V5Z"
        fill="#131313" fill-opacity="1" />
</svg>
