<svg width="18" height="15" viewBox="0 0 18 15" fill="none" xmlns="http://www.w3.org/2000/svg">
<path fill-rule="evenodd" clip-rule="evenodd" d="M18.0006 7.50049C18.0006 7.9147 17.6648 8.25049 17.2506 8.25049H2.56092L8.03124 13.7199C8.32429 14.0129 8.32429 14.4881 8.03124 14.7811C7.73818 15.0742 7.26304 15.0742 6.96999 14.7811L0.219985 8.03111C0.0791526 7.89044 2.02656e-05 7.69954 2.02656e-05 7.50049C2.02656e-05 7.30143 0.0791526 7.11054 0.219985 6.96986L6.96999 0.219863C7.26304 -0.0731926 7.73818 -0.0731926 8.03124 0.219863C8.32429 0.512919 8.32429 0.988057 8.03124 1.28111L2.56092 6.75049H17.2506C17.6648 6.75049 18.0006 7.08628 18.0006 7.50049Z" fill="#0E0E10"/>
</svg>
