<svg width="18" height="18" viewBox="0 0 18 18" fill="none" xmlns="http://www.w3.org/2000/svg">
<path d="M15.788 9.32869C15.6477 9.16901 15.5704 8.96373 15.5704 8.75119C15.5704 8.53865 15.6477 8.33337 15.788 8.17369L16.908 6.91369C17.0314 6.77602 17.1081 6.60281 17.1269 6.41888C17.1458 6.23496 17.1059 6.04979 17.013 5.88994L15.263 2.86244C15.1711 2.70277 15.031 2.57621 14.8629 2.50079C14.6948 2.42537 14.5072 2.40495 14.3268 2.44244L12.6818 2.77494C12.4725 2.81819 12.2545 2.78333 12.0692 2.67694C11.8838 2.57055 11.7438 2.39999 11.6755 2.19744L11.1418 0.59619C11.0831 0.422397 10.9712 0.271447 10.8221 0.164677C10.6729 0.0579065 10.494 0.000716447 10.3105 0.00118996H6.81052C6.61971 -0.00876932 6.43089 0.0440005 6.27289 0.15144C6.11489 0.258879 5.9964 0.415082 5.93552 0.59619L5.44552 2.19744C5.37727 2.39999 5.23725 2.57055 5.05187 2.67694C4.86649 2.78333 4.64858 2.81819 4.43927 2.77494L2.75052 2.44244C2.5795 2.41827 2.40516 2.44526 2.24945 2.52C2.09374 2.59474 1.96363 2.71389 1.87552 2.86244L0.12552 5.88994C0.0302846 6.04801 -0.0125361 6.23214 0.00317935 6.41601C0.0188948 6.59988 0.0923416 6.77408 0.213019 6.91369L1.32427 8.17369C1.46455 8.33337 1.54191 8.53865 1.54191 8.75119C1.54191 8.96373 1.46455 9.16901 1.32427 9.32869L0.213019 10.5887C0.0923416 10.7283 0.0188948 10.9025 0.00317935 11.0864C-0.0125361 11.2702 0.0302846 11.4544 0.12552 11.6124L1.87552 14.6399C1.96748 14.7996 2.1075 14.9262 2.27562 15.0016C2.44373 15.077 2.63137 15.0974 2.81177 15.0599L4.45677 14.7274C4.66608 14.6842 4.88399 14.719 5.06937 14.8254C5.25475 14.9318 5.39477 15.1024 5.46302 15.3049L5.99677 16.9062C6.05765 17.0873 6.17614 17.2435 6.33414 17.3509C6.49214 17.4584 6.68096 17.5111 6.87177 17.5012H10.3718C10.5552 17.5017 10.7342 17.4445 10.8833 17.3377C11.0325 17.2309 11.1443 17.08 11.203 16.9062L11.7368 15.3049C11.805 15.1024 11.945 14.9318 12.1304 14.8254C12.3158 14.719 12.5337 14.6842 12.743 14.7274L14.388 15.0599C14.5684 15.0974 14.7561 15.077 14.9242 15.0016C15.0923 14.9262 15.2323 14.7996 15.3243 14.6399L17.0743 11.6124C17.1672 11.4526 17.2071 11.2674 17.1882 11.0835C17.1693 10.8996 17.0927 10.7264 16.9693 10.5887L15.788 9.32869ZM14.4843 10.5012L15.1843 11.2887L14.0643 13.2312L13.0318 13.0212C12.4016 12.8924 11.746 12.9994 11.1895 13.322C10.6331 13.6446 10.2144 14.1603 10.013 14.7712L9.68052 15.7512H7.44052L7.12552 14.7537C6.92414 14.1428 6.50548 13.6271 5.949 13.3045C5.39252 12.9819 4.73696 12.8749 4.10677 13.0037L3.07427 13.2137L1.93677 11.2799L2.63677 10.4924C3.06723 10.0112 3.30521 9.38813 3.30521 8.74244C3.30521 8.09675 3.06723 7.47371 2.63677 6.99244L1.93677 6.20494L3.05677 4.27994L4.08927 4.48994C4.71946 4.61876 5.37502 4.51171 5.9315 4.18911C6.48798 3.86652 6.90664 3.35083 7.10802 2.73994L7.44052 1.75119H9.68052L10.013 2.74869C10.2144 3.35958 10.6331 3.87527 11.1895 4.19786C11.746 4.52046 12.4016 4.62751 13.0318 4.49869L14.0643 4.28869L15.1843 6.23119L14.4843 7.01869C14.0586 7.49886 13.8236 8.11829 13.8236 8.75994C13.8236 9.40159 14.0586 10.021 14.4843 10.5012ZM8.56052 5.25119C7.86829 5.25119 7.1916 5.45646 6.61602 5.84105C6.04045 6.22563 5.59185 6.77226 5.32694 7.4118C5.06203 8.05134 4.99272 8.75507 5.12777 9.43401C5.26282 10.1129 5.59616 10.7366 6.08565 11.2261C6.57513 11.7155 7.19877 12.0489 7.8777 12.1839C8.55664 12.319 9.26037 12.2497 9.89991 11.9848C10.5395 11.7199 11.0861 11.2713 11.4707 10.6957C11.8552 10.1201 12.0605 9.44342 12.0605 8.75119C12.0605 7.82293 11.6918 6.93269 11.0354 6.27632C10.379 5.61994 9.48878 5.25119 8.56052 5.25119ZM8.56052 10.5012C8.2144 10.5012 7.87606 10.3986 7.58827 10.2063C7.30049 10.014 7.07618 9.74066 6.94373 9.42089C6.81128 9.10112 6.77662 8.74925 6.84415 8.40978C6.91167 8.07032 7.07834 7.7585 7.32308 7.51375C7.56782 7.26901 7.87964 7.10234 8.21911 7.03482C8.55858 6.96729 8.91044 7.00195 9.23022 7.1344C9.54999 7.26685 9.8233 7.49116 10.0156 7.77894C10.2079 8.06673 10.3105 8.40507 10.3105 8.75119C10.3105 9.21532 10.1261 9.66044 9.79796 9.98863C9.46977 10.3168 9.02465 10.5012 8.56052 10.5012Z" fill="#5C3D8C"/>
</svg>
